<svg width="2124" height="1394" xmlns="http://www.w3.org/2000/svg" xmlns:xlink="http://www.w3.org/1999/xlink" xml:space="preserve" overflow="hidden"><g transform="translate(-1106 -402)"><path d="M1187.5 570.168C1187.5 505.182 1240.18 452.5 1305.17 452.5L3108.83 452.5C3173.82 452.5 3226.5 505.182 3226.5 570.168L3226.5 1040.83C3226.5 1105.82 3173.82 1158.5 3108.83 1158.5L1305.17 1158.5C1240.18 1158.5 1187.5 1105.82 1187.5 1040.83Z" stroke="#000000" stroke-width="6.875" stroke-miterlimit="8" fill="#FFFFFF" fill-rule="evenodd"/><text font-family="Consolas,Consolas_MSFontService,sans-serif" font-weight="700" font-size="50" text-decoration="underline" transform="matrix(1 0 0 1 1254.49 565)">text</text><text font-family="Consolas,Consolas_MSFontService,sans-serif" font-weight="400" font-size="50" transform="matrix(1 0 0 1 1364.49 565)">: Ricky Martin is a celebrated singer, actor, and author.</text><text font-family="Consolas,Consolas_MSFontService,sans-serif" font-weight="700" font-size="50" text-decoration="underline" transform="matrix(1 0 0 1 1254.49 648)">facts</text><text font-family="Consolas,Consolas_MSFontService,sans-serif" font-weight="400" font-size="50" transform="matrix(1 0 0 1 1391.99 648)">:</text><text font-family="Arial,Arial_MSFontService,sans-serif" font-weight="400" font-size="50" transform="matrix(1 0 0 1 1254.49 731)">•</text><text font-family="Consolas,Consolas_MSFontService,sans-serif" font-weight="700" font-size="50" transform="matrix(1 0 0 1 1316.37 731)">fact</text><text font-family="Consolas,Consolas_MSFontService,sans-serif" font-weight="400" font-size="50" transform="matrix(1 0 0 1 1426.37 731)">: Ricky Martin is a celebrated singer. </text><text font-family="Consolas,Consolas_MSFontService,sans-serif" font-weight="700" font-size="50" transform="matrix(1 0 0 1 1316.37 792)">label</text><text font-family="Consolas,Consolas_MSFontService,sans-serif" font-weight="400" font-size="50" transform="matrix(1 0 0 1 1453.87 792)">: Supported</text><text font-family="Arial,Arial_MSFontService,sans-serif" font-weight="400" font-size="50" transform="matrix(1 0 0 1 1254.49 875)">•</text><text font-family="Consolas,Consolas_MSFontService,sans-serif" font-weight="700" font-size="50" transform="matrix(1 0 0 1 1316.37 875)">fact</text><text font-family="Consolas,Consolas_MSFontService,sans-serif" font-weight="400" font-size="50" transform="matrix(1 0 0 1 1426.37 875)">: Ricky Martin is an actor. </text><text font-family="Consolas,Consolas_MSFontService,sans-serif" font-weight="700" font-size="50" transform="matrix(1 0 0 1 1316.37 936)">label</text><text font-family="Consolas,Consolas_MSFontService,sans-serif" font-weight="400" font-size="50" transform="matrix(1 0 0 1 1453.87 936)">: Supported</text><text font-family="Arial,Arial_MSFontService,sans-serif" font-weight="400" font-size="50" transform="matrix(1 0 0 1 1254.49 1019)">•</text><text font-family="Consolas,Consolas_MSFontService,sans-serif" font-weight="700" font-size="50" transform="matrix(1 0 0 1 1316.37 1019)">fact</text><text font-family="Consolas,Consolas_MSFontService,sans-serif" font-weight="400" font-size="50" transform="matrix(1 0 0 1 1426.37 1019)">: Ricky Martin is an author. </text><text font-family="Consolas,Consolas_MSFontService,sans-serif" font-weight="700" font-size="50" transform="matrix(1 0 0 1 1316.37 1080)">label</text><text font-family="Consolas,Consolas_MSFontService,sans-serif" font-weight="400" font-size="50" transform="matrix(1 0 0 1 1453.87 1080)">: </text><text fill="#FF0000" font-family="Consolas,Consolas_MSFontService,sans-serif" font-weight="400" font-size="50" transform="matrix(1 0 0 1 1508.87 1080)">Not Supported</text><path d="M1187.5 1243C1187.5 1212.9 1211.9 1188.5 1242 1188.5L3172 1188.5C3202.1 1188.5 3226.5 1212.9 3226.5 1243L3226.5 1461C3226.5 1491.1 3202.1 1515.5 3172 1515.5L1242 1515.5C1211.9 1515.5 1187.5 1491.1 1187.5 1461Z" stroke="#000000" stroke-width="6.875" stroke-miterlimit="8" fill="#FFFFFF" fill-rule="evenodd"/><path d="M2775.02 1307.25 2808.18 1375.92 2807.15 1376.42 2773.98 1307.75ZM2818.05 1366.06 2817.63 1396.8 2793.29 1378.02Z" fill="#FF0000"/><text font-family="Consolas,Consolas_MSFontService,sans-serif" font-weight="400" font-size="55" transform="matrix(1 0 0 1 1339.97 1439)">Ricky Martin is a celebrated singer, actor, and </text><text fill="#FF0000" font-family="Consolas,Consolas_MSFontService,sans-serif" font-weight="400" font-size="55" transform="matrix(1 0 0 1 2797.47 1439)">author</text><text font-family="Consolas,Consolas_MSFontService,sans-serif" font-weight="400" font-size="55" transform="matrix(1 0 0 1 2979.66 1439)">.</text><path d="M0.546468-0.172063 27.8476 86.5357 26.7547 86.8798-0.546468 0.172063ZM39.0399 78.2065 34.1837 108.567 12.8094 86.4656Z" fill="#FF0000" transform="matrix(-1 0 0 1 3044.68 1295.5)"/><text font-family="Consolas,Consolas_MSFontService,sans-serif" font-weight="400" font-size="55" transform="matrix(1 0 0 1 2685.13 1295)">start</text><text font-family="Consolas,Consolas_MSFontService,sans-serif" font-weight="400" font-size="55" transform="matrix(1 0 0 1 2998.87 1293)">end</text><path d="M1187.5 1587.5C1187.5 1564.86 1205.86 1546.5 1228.5 1546.5L3185.5 1546.5C3208.14 1546.5 3226.5 1564.86 3226.5 1587.5L3226.5 1751.5C3226.5 1774.14 3208.14 1792.5 3185.5 1792.5L1228.5 1792.5C1205.86 1792.5 1187.5 1774.14 1187.5 1751.5Z" stroke="#000000" stroke-width="6.875" stroke-miterlimit="8" fill="#FFFFFF" fill-rule="evenodd"/><text font-family="Consolas,Consolas_MSFontService,sans-serif" font-weight="400" font-size="55" transform="matrix(1 0 0 1 1234.9 1655)">[" celebrated"," singer",","," actor",","," and",</text><text fill="#FF0000" font-family="Consolas,Consolas_MSFontService,sans-serif" font-weight="400" font-size="55" transform="matrix(1 0 0 1 2722.76 1655)">" author"</text><text font-family="Consolas,Consolas_MSFontService,sans-serif" font-weight="400" font-size="55" transform="matrix(1 0 0 1 2996.05 1655)">, "."]</text><text font-family="Consolas,Consolas_MSFontService,sans-serif" font-weight="400" font-size="55" transform="matrix(1 0 0 1 1234.9 1721)">[     0,           0,     0,     0,    0,    0,     </text><text fill="#FF0000" font-family="Consolas,Consolas_MSFontService,sans-serif" font-weight="400" font-size="55" transform="matrix(1 0 0 1 2844.22 1721)">1</text><text font-family="Consolas,Consolas_MSFontService,sans-serif" font-weight="400" font-size="55" transform="matrix(1 0 0 1 2874.59 1721)">,      0 ]</text><text font-family="Consolas,Consolas_MSFontService,sans-serif" font-weight="400" font-size="55" transform="matrix(1 0 0 1 1177.49 471)">a</text><text font-family="Consolas,Consolas_MSFontService,sans-serif" font-weight="400" font-size="55" transform="matrix(1 0 0 1 1143.78 1207)">b</text><text font-family="Consolas,Consolas_MSFontService,sans-serif" font-weight="400" font-size="55" transform="matrix(1 0 0 1 1146.47 1570)">c</text></g></svg>