<svg width="2638" height="1527" xmlns="http://www.w3.org/2000/svg" xmlns:xlink="http://www.w3.org/1999/xlink" xml:space="preserve" overflow="hidden"><g transform="translate(-804 -102)"><path d="M806 252.168C806 180.831 863.831 123 935.168 123L3269.83 123C3341.17 123 3399 180.831 3399 252.168L3399 768.832C3399 840.169 3341.17 898 3269.83 898L935.168 898C863.831 898 806 840.169 806 768.832Z" fill="#FFFFFF" fill-rule="evenodd"/><text font-family="Consolas,Consolas_MSFontService,sans-serif" font-weight="400" font-size="71" transform="matrix(1 0 0 1 876.795 191)">William Shatner is a celebrated actor, author, and astronaut</text><text font-family="Consolas,Consolas_MSFontService,sans-serif" font-weight="400" font-size="71" transform="matrix(1 0 0 1 3214.29 191)">.</text><text font-family="Consolas,Consolas_MSFontService,sans-serif" font-weight="700" font-size="71" text-decoration="underline" transform="matrix(1 0 0 1 876.795 299)">facts</text><text font-family="Consolas,Consolas_MSFontService,sans-serif" font-weight="400" font-size="71" transform="matrix(1 0 0 1 1071.59 299)">:</text><text font-family="Arial,Arial_MSFontService,sans-serif" font-weight="400" font-size="71" transform="matrix(1 0 0 1 876.795 407)">•</text><text font-family="Consolas,Consolas_MSFontService,sans-serif" font-weight="700" font-size="71" transform="matrix(1 0 0 1 938.67 407)">fact</text><text font-family="Consolas,Consolas_MSFontService,sans-serif" font-weight="400" font-size="71" transform="matrix(1 0 0 1 1094.5 407)">: </text><text font-family="Consolas,Consolas_MSFontService,sans-serif" font-weight="400" font-size="71" transform="matrix(1 0 0 1 1172.42 407)">William Shatner </text><text font-family="Consolas,Consolas_MSFontService,sans-serif" font-weight="400" font-size="71" transform="matrix(1 0 0 1 1795.75 407)">is </text><text font-family="Consolas,Consolas_MSFontService,sans-serif" font-weight="400" font-size="71" transform="matrix(1 0 0 1 1912.63 407)">a celebrated </text><text font-family="Consolas,Consolas_MSFontService,sans-serif" font-weight="400" font-size="71" transform="matrix(1 0 0 1 2419.09 407)">actor</text><text font-family="Consolas,Consolas_MSFontService,sans-serif" font-weight="400" font-size="71" transform="matrix(1 0 0 1 2613.88 407)">. </text><text font-family="Consolas,Consolas_MSFontService,sans-serif" font-weight="700" font-size="71" transform="matrix(1 0 0 1 938.67 493)">label</text><text font-family="Consolas,Consolas_MSFontService,sans-serif" font-weight="400" font-size="71" transform="matrix(1 0 0 1 1133.46 493)">: Supported</text><text font-family="Arial,Arial_MSFontService,sans-serif" font-weight="400" font-size="71" transform="matrix(1 0 0 1 876.795 601)">•</text><text font-family="Consolas,Consolas_MSFontService,sans-serif" font-weight="700" font-size="71" transform="matrix(1 0 0 1 938.67 601)">fact</text><text font-family="Consolas,Consolas_MSFontService,sans-serif" font-weight="400" font-size="71" transform="matrix(1 0 0 1 1094.5 601)">: </text><text font-family="Consolas,Consolas_MSFontService,sans-serif" font-weight="400" font-size="71" transform="matrix(1 0 0 1 1172.42 601)">William Shatner </text><text font-family="Consolas,Consolas_MSFontService,sans-serif" font-weight="400" font-size="71" transform="matrix(1 0 0 1 1795.75 601)">is </text><text font-family="Consolas,Consolas_MSFontService,sans-serif" font-weight="400" font-size="71" transform="matrix(1 0 0 1 1912.63 601)">an </text><text font-family="Consolas,Consolas_MSFontService,sans-serif" font-weight="400" font-size="71" transform="matrix(1 0 0 1 2029.5 601)">author</text><text font-family="Consolas,Consolas_MSFontService,sans-serif" font-weight="400" font-size="71" transform="matrix(1 0 0 1 2263.25 601)">. </text><text font-family="Consolas,Consolas_MSFontService,sans-serif" font-weight="700" font-size="71" transform="matrix(1 0 0 1 938.67 686)">label</text><text font-family="Consolas,Consolas_MSFontService,sans-serif" font-weight="400" font-size="71" transform="matrix(1 0 0 1 1133.46 686)">: Supported</text><text font-family="Arial,Arial_MSFontService,sans-serif" font-weight="400" font-size="71" transform="matrix(1 0 0 1 876.795 794)">•</text><text font-family="Consolas,Consolas_MSFontService,sans-serif" font-weight="700" font-size="71" transform="matrix(1 0 0 1 938.67 794)">fact</text><text font-family="Consolas,Consolas_MSFontService,sans-serif" font-weight="400" font-size="71" transform="matrix(1 0 0 1 1094.5 794)">: </text><text font-family="Consolas,Consolas_MSFontService,sans-serif" font-weight="400" font-size="71" transform="matrix(1 0 0 1 1172.42 794)">William Shatner </text><text font-family="Consolas,Consolas_MSFontService,sans-serif" font-weight="400" font-size="71" transform="matrix(1 0 0 1 1795.75 794)">is a</text><text font-family="Consolas,Consolas_MSFontService,sans-serif" font-weight="400" font-size="71" transform="matrix(1 0 0 1 1951.59 794)">n</text><text font-family="Consolas,Consolas_MSFontService,sans-serif" font-weight="400" font-size="71" transform="matrix(1 0 0 1 2029.5 794)">astronaut</text><text font-family="Consolas,Consolas_MSFontService,sans-serif" font-weight="400" font-size="71" transform="matrix(1 0 0 1 2380.13 794)">. </text><text font-family="Consolas,Consolas_MSFontService,sans-serif" font-weight="700" font-size="71" transform="matrix(1 0 0 1 938.67 879)">label</text><text font-family="Consolas,Consolas_MSFontService,sans-serif" font-weight="400" font-size="71" transform="matrix(1 0 0 1 1133.46 879)">: </text><text fill="#FF0000" font-family="Consolas,Consolas_MSFontService,sans-serif" font-weight="400" font-size="71" transform="matrix(1 0 0 1 1211.38 879)">Not Supported</text><text font-family="Consolas,Consolas_MSFontService,sans-serif" font-weight="400" font-size="73" transform="matrix(1 0 0 1 848.674 1221)">William Shatner is a celebrated actor, author, and </text><text fill="#FF0000" font-family="Consolas,Consolas_MSFontService,sans-serif" font-weight="400" font-size="73" transform="matrix(1 0 0 1 2893.99 1221)">astronaut</text><text font-family="Consolas,Consolas_MSFontService,sans-serif" font-weight="400" font-size="73" transform="matrix(1 0 0 1 3254.92 1221)">.</text><path d="M2853.02 1089.25 2885.78 1157.87 2884.74 1158.37 2851.98 1089.75ZM2895.7 1148.06 2895.14 1178.8 2870.88 1159.91Z" fill="#FF0000"/><text fill="#FF0000" font-family="Consolas,Consolas_MSFontService,sans-serif" font-weight="400" font-size="55" transform="matrix(1 0 0 1 2783.1 1077)">start</text><path d="M0.547034-0.170257 27.5267 86.5149 26.4327 86.8555-0.547034 0.170257ZM38.7464 78.2227 33.79 108.567 12.4888 86.3951Z" fill="#FF0000" transform="matrix(-1 0 0 1 3270.29 1067.5)"/><text fill="#FF0000" font-family="Consolas,Consolas_MSFontService,sans-serif" font-weight="400" font-size="55" transform="matrix(1 0 0 1 3223.85 1061)">end</text><path d="M806 1422C806 1399.36 824.357 1381 847.002 1381L3401 1381C3423.64 1381 3442 1399.36 3442 1422L3442 1586C3442 1608.64 3423.64 1627 3401 1627L847.002 1627C824.357 1627 806 1608.64 806 1586Z" fill="#FFFFFF" fill-rule="evenodd"/><text font-family="Consolas,Consolas_MSFontService,sans-serif" font-weight="400" font-size="69" transform="matrix(1 0 0 1 857.504 1486)">[" celebrated"," actor",","," author",","," and",</text><text fill="#FF0000" font-family="Consolas,Consolas_MSFontService,sans-serif" font-weight="400" font-size="69" transform="matrix(1 0 0 1 2710.32 1486)">" astronaut"</text><text font-family="Consolas,Consolas_MSFontService,sans-serif" font-weight="400" font-size="69" transform="matrix(1 0 0 1 3164.07 1486)">, "."]</text><text font-family="Consolas,Consolas_MSFontService,sans-serif" font-weight="400" font-size="69" transform="matrix(1 0 0 1 857.504 1569)">[       </text><text font-family="Consolas,Consolas_MSFontService,sans-serif" font-weight="400" font-size="69" transform="matrix(1 0 0 1 1160 1569)">0</text><text font-family="Consolas,Consolas_MSFontService,sans-serif" font-weight="400" font-size="69" transform="matrix(1 0 0 1 1197.82 1569)">,          </text><text font-family="Consolas,Consolas_MSFontService,sans-serif" font-weight="400" font-size="69" transform="matrix(1 0 0 1 1613.75 1569)">0</text><text font-family="Consolas,Consolas_MSFontService,sans-serif" font-weight="400" font-size="69" transform="matrix(1 0 0 1 1651.57 1569)">,   </text><text font-family="Consolas,Consolas_MSFontService,sans-serif" font-weight="400" font-size="69" transform="matrix(1 0 0 1 1802.82 1569)">0</text><text font-family="Consolas,Consolas_MSFontService,sans-serif" font-weight="400" font-size="69" transform="matrix(1 0 0 1 1840.63 1569)">,     </text><text font-family="Consolas,Consolas_MSFontService,sans-serif" font-weight="400" font-size="69" transform="matrix(1 0 0 1 2067.5 1569)">0</text><text font-family="Consolas,Consolas_MSFontService,sans-serif" font-weight="400" font-size="69" transform="matrix(1 0 0 1 2105.32 1569)">,     </text><text font-family="Consolas,Consolas_MSFontService,sans-serif" font-weight="400" font-size="69" transform="matrix(1 0 0 1 2332.19 1569)">0</text><text font-family="Consolas,Consolas_MSFontService,sans-serif" font-weight="400" font-size="69" transform="matrix(1 0 0 1 2370 1569)">,    </text><text font-family="Consolas,Consolas_MSFontService,sans-serif" font-weight="400" font-size="69" transform="matrix(1 0 0 1 2559.07 1569)">0</text><text font-family="Consolas,Consolas_MSFontService,sans-serif" font-weight="400" font-size="69" transform="matrix(1 0 0 1 2596.88 1569)">,      </text><text fill="#FF0000" font-family="Consolas,Consolas_MSFontService,sans-serif" font-weight="400" font-size="69" transform="matrix(1 0 0 1 2861.57 1569)">1</text><text font-family="Consolas,Consolas_MSFontService,sans-serif" font-weight="400" font-size="69" transform="matrix(1 0 0 1 2899.38 1569)">,         </text><text font-family="Consolas,Consolas_MSFontService,sans-serif" font-weight="400" font-size="69" transform="matrix(1 0 0 1 3277.5 1569)">0 </text><text font-family="Consolas,Consolas_MSFontService,sans-serif" font-weight="400" font-size="69" transform="matrix(1 0 0 1 3353.13 1569)">]</text><path d="M806.5 1335.5 3426.33 1335.5" stroke="#000000" stroke-width="4.58333" stroke-linejoin="round" stroke-miterlimit="10" fill="none" fill-rule="evenodd"/><path d="M806.5 953.5 3426.33 953.5" stroke="#000000" stroke-width="4.58333" stroke-linejoin="round" stroke-miterlimit="10" fill="none" fill-rule="evenodd"/></g></svg>