<svg width="2652" height="1510" xmlns="http://www.w3.org/2000/svg" xmlns:xlink="http://www.w3.org/1999/xlink" xml:space="preserve" overflow="hidden"><defs><clipPath id="clip0"><rect x="776" y="119" width="2652" height="1510"/></clipPath></defs><g clip-path="url(#clip0)" transform="translate(-776 -119)"><path d="M776 292.67C776 227.682 828.682 175 893.669 175L3310.33 175C3375.32 175 3428 227.682 3428 292.67L3428 763.33C3428 828.318 3375.32 881 3310.33 881L893.669 881C828.682 881 776 828.318 776 763.33Z" fill="#FFFFFF" fill-rule="evenodd"/><text font-family="Consolas,Consolas_MSFontService,sans-serif" font-weight="700" font-size="71" text-decoration="underline" transform="matrix(1 0 0 1 843.224 208)">text</text><text font-family="Consolas,Consolas_MSFontService,sans-serif" font-weight="400" font-size="71" transform="matrix(1 0 0 1 999.057 208)">: Ricky Martin is a celebrated singer, actor, and author.</text><text font-family="Consolas,Consolas_MSFontService,sans-serif" font-weight="700" font-size="71" text-decoration="underline" transform="matrix(1 0 0 1 843.224 316)">facts</text><text font-family="Consolas,Consolas_MSFontService,sans-serif" font-weight="400" font-size="71" transform="matrix(1 0 0 1 1038.02 316)">:</text><text font-family="Arial,Arial_MSFontService,sans-serif" font-weight="400" font-size="71" transform="matrix(1 0 0 1 843.224 424)">•</text><text font-family="Consolas,Consolas_MSFontService,sans-serif" font-weight="700" font-size="71" transform="matrix(1 0 0 1 905.099 424)">fact</text><text font-family="Consolas,Consolas_MSFontService,sans-serif" font-weight="400" font-size="71" transform="matrix(1 0 0 1 1060.93 424)">: Ricky Martin is a celebrated singer. </text><text font-family="Consolas,Consolas_MSFontService,sans-serif" font-weight="700" font-size="71" transform="matrix(1 0 0 1 905.099 510)">label</text><text font-family="Consolas,Consolas_MSFontService,sans-serif" font-weight="400" font-size="71" transform="matrix(1 0 0 1 1099.89 510)">: Supported</text><text font-family="Arial,Arial_MSFontService,sans-serif" font-weight="400" font-size="71" transform="matrix(1 0 0 1 843.224 618)">•</text><text font-family="Consolas,Consolas_MSFontService,sans-serif" font-weight="700" font-size="71" transform="matrix(1 0 0 1 905.099 618)">fact</text><text font-family="Consolas,Consolas_MSFontService,sans-serif" font-weight="400" font-size="71" transform="matrix(1 0 0 1 1060.93 618)">: Ricky Martin is an actor. </text><text font-family="Consolas,Consolas_MSFontService,sans-serif" font-weight="700" font-size="71" transform="matrix(1 0 0 1 905.099 703)">label</text><text font-family="Consolas,Consolas_MSFontService,sans-serif" font-weight="400" font-size="71" transform="matrix(1 0 0 1 1099.89 703)">: Supported</text><text font-family="Arial,Arial_MSFontService,sans-serif" font-weight="400" font-size="71" transform="matrix(1 0 0 1 843.224 811)">•</text><text font-family="Consolas,Consolas_MSFontService,sans-serif" font-weight="700" font-size="71" transform="matrix(1 0 0 1 905.099 811)">fact</text><text font-family="Consolas,Consolas_MSFontService,sans-serif" font-weight="400" font-size="71" transform="matrix(1 0 0 1 1060.93 811)">: Ricky Martin is an author. </text><text font-family="Consolas,Consolas_MSFontService,sans-serif" font-weight="700" font-size="71" transform="matrix(1 0 0 1 905.099 896)">label</text><text font-family="Consolas,Consolas_MSFontService,sans-serif" font-weight="400" font-size="71" transform="matrix(1 0 0 1 1099.89 896)">: </text><text fill="#FF0000" font-family="Consolas,Consolas_MSFontService,sans-serif" font-weight="400" font-size="71" transform="matrix(1 0 0 1 1177.81 896)">Not Supported</text><text font-family="Consolas,Consolas_MSFontService,sans-serif" font-weight="400" font-size="73" transform="matrix(1 0 0 1 959.635 1211)">Ricky Martin is a celebrated singer, actor, and </text><text fill="#FF0000" font-family="Consolas,Consolas_MSFontService,sans-serif" font-weight="400" font-size="73" transform="matrix(1 0 0 1 2884.64 1211)">author</text><text font-family="Consolas,Consolas_MSFontService,sans-serif" font-weight="400" font-size="73" transform="matrix(1 0 0 1 3125.26 1211)">.</text><path d="M2840.02 1080.25 2873.18 1148.92 2872.15 1149.42 2838.98 1080.75ZM2883.05 1139.06 2882.63 1169.8 2858.29 1151.02Z" fill="#FF0000"/><text font-family="Consolas,Consolas_MSFontService,sans-serif" font-weight="400" font-size="55" transform="matrix(1 0 0 1 2769.56 1068)">start</text><path d="M0.546468-0.172063 27.8476 86.5357 26.7547 86.8798-0.546468 0.172063ZM39.0399 78.2065 34.1837 108.567 12.8094 86.4656Z" fill="#FF0000" transform="matrix(-1 0 0 1 3173.68 1065.5)"/><text font-family="Consolas,Consolas_MSFontService,sans-serif" font-weight="400" font-size="55" transform="matrix(1 0 0 1 3125.99 1056)">end</text><path d="M825 1422C825 1399.36 843.357 1381 866.001 1381L3296 1381C3318.64 1381 3337 1399.36 3337 1422L3337 1586C3337 1608.64 3318.64 1627 3296 1627L866.001 1627C843.357 1627 825 1608.64 825 1586Z" fill="#FFFFFF" fill-rule="evenodd"/><text font-family="Consolas,Consolas_MSFontService,sans-serif" font-weight="400" font-size="69" transform="matrix(1 0 0 1 870.864 1486)">[" celebrated"," singer",","," actor",","," and",</text><text fill="#FF0000" font-family="Consolas,Consolas_MSFontService,sans-serif" font-weight="400" font-size="69" transform="matrix(1 0 0 1 2723.68 1486)">" author"</text><text font-family="Consolas,Consolas_MSFontService,sans-serif" font-weight="400" font-size="69" transform="matrix(1 0 0 1 3063.99 1486)">, "."]</text><text font-family="Consolas,Consolas_MSFontService,sans-serif" font-weight="400" font-size="69" transform="matrix(1 0 0 1 870.864 1569)">[     0,           0,     0,     0,    0,    0,     </text><text fill="#FF0000" font-family="Consolas,Consolas_MSFontService,sans-serif" font-weight="400" font-size="69" transform="matrix(1 0 0 1 2874.93 1569)">1</text><text font-family="Consolas,Consolas_MSFontService,sans-serif" font-weight="400" font-size="69" transform="matrix(1 0 0 1 2912.74 1569)">,      0 ]</text><path d="M810.5 943.5 3251.02 948.216" stroke="#000000" stroke-width="4.58333" stroke-linejoin="round" stroke-miterlimit="10" fill="none" fill-rule="evenodd"/><path d="M810.5 1318.5 3251.02 1318.5" stroke="#000000" stroke-width="4.58333" stroke-linejoin="round" stroke-miterlimit="10" fill="none" fill-rule="evenodd"/></g></svg>